<mxfile host="65bd71144e">
    <diagram id="Ew-BbfgcPZfaA_15n5nu" name="Page-1">
        <mxGraphModel dx="995" dy="598" grid="1" gridSize="10" guides="1" tooltips="1" connect="1" arrows="1" fold="1" page="1" pageScale="1" pageWidth="850" pageHeight="1100" math="0" shadow="0">
            <root>
                <mxCell id="0"/>
                <mxCell id="1" parent="0"/>
                <mxCell id="eUWFBzSHJtQ3XrDhSWeI-14" value="" style="edgeStyle=none;html=1;" parent="1" source="eUWFBzSHJtQ3XrDhSWeI-2" target="eUWFBzSHJtQ3XrDhSWeI-13" edge="1">
                    <mxGeometry relative="1" as="geometry"/>
                </mxCell>
                <mxCell id="eUWFBzSHJtQ3XrDhSWeI-2" value="START" style="ellipse;whiteSpace=wrap;html=1;aspect=fixed;" parent="1" vertex="1">
                    <mxGeometry x="410" y="20" width="80" height="80" as="geometry"/>
                </mxCell>
                <mxCell id="eUWFBzSHJtQ3XrDhSWeI-3" value="Load champions&lt;br&gt;(parse champion)" style="rounded=0;whiteSpace=wrap;html=1;" parent="1" vertex="1">
                    <mxGeometry x="390" y="140" width="120" height="60" as="geometry"/>
                </mxCell>
                <mxCell id="eUWFBzSHJtQ3XrDhSWeI-6" value="Initialize core" style="whiteSpace=wrap;html=1;" parent="1" vertex="1">
                    <mxGeometry x="390" y="510" width="120" height="60" as="geometry"/>
                </mxCell>
                <mxCell id="eUWFBzSHJtQ3XrDhSWeI-10" value="Core&lt;br&gt;&lt;br&gt;MEM_SIZE" style="rounded=1;whiteSpace=wrap;html=1;verticalAlign=top;align=center;arcSize=15;" parent="1" vertex="1">
                    <mxGeometry x="40" y="30" width="190" height="210" as="geometry"/>
                </mxCell>
                <mxCell id="eUWFBzSHJtQ3XrDhSWeI-17" value="" style="edgeStyle=none;html=1;" parent="1" source="eUWFBzSHJtQ3XrDhSWeI-13" target="eUWFBzSHJtQ3XrDhSWeI-16" edge="1">
                    <mxGeometry relative="1" as="geometry"/>
                </mxCell>
                <mxCell id="eUWFBzSHJtQ3XrDhSWeI-13" value="Validate champions" style="whiteSpace=wrap;html=1;" parent="1" vertex="1">
                    <mxGeometry x="390" y="260" width="120" height="60" as="geometry"/>
                </mxCell>
                <mxCell id="eUWFBzSHJtQ3XrDhSWeI-18" style="edgeStyle=none;html=1;" parent="1" source="eUWFBzSHJtQ3XrDhSWeI-16" target="eUWFBzSHJtQ3XrDhSWeI-6" edge="1">
                    <mxGeometry relative="1" as="geometry"/>
                </mxCell>
                <mxCell id="eUWFBzSHJtQ3XrDhSWeI-16" value="Initialize champions" style="whiteSpace=wrap;html=1;" parent="1" vertex="1">
                    <mxGeometry x="390" y="360" width="120" height="60" as="geometry"/>
                </mxCell>
                <mxCell id="52" value="" style="group" vertex="1" connectable="0" parent="1">
                    <mxGeometry x="60" y="370" width="290" height="330" as="geometry"/>
                </mxCell>
                <mxCell id="2" value="Champion" style="rounded=1;whiteSpace=wrap;html=1;verticalAlign=top;align=center;arcSize=15;" vertex="1" parent="52">
                    <mxGeometry width="290" height="330" as="geometry"/>
                </mxCell>
                <mxCell id="36" value="" style="group" vertex="1" connectable="0" parent="52">
                    <mxGeometry x="20" y="30" width="160" height="70" as="geometry"/>
                </mxCell>
                <mxCell id="34" value="" style="group" vertex="1" connectable="0" parent="36">
                    <mxGeometry y="30" width="160" height="40" as="geometry"/>
                </mxCell>
                <mxCell id="29" value="" style="whiteSpace=wrap;html=1;aspect=fixed;" vertex="1" parent="34">
                    <mxGeometry width="40" height="40" as="geometry"/>
                </mxCell>
                <mxCell id="30" value="" style="whiteSpace=wrap;html=1;aspect=fixed;" vertex="1" parent="34">
                    <mxGeometry x="40" width="40" height="40" as="geometry"/>
                </mxCell>
                <mxCell id="31" value="" style="whiteSpace=wrap;html=1;aspect=fixed;" vertex="1" parent="34">
                    <mxGeometry x="80" width="40" height="40" as="geometry"/>
                </mxCell>
                <mxCell id="32" value="" style="whiteSpace=wrap;html=1;aspect=fixed;" vertex="1" parent="34">
                    <mxGeometry x="120" width="40" height="40" as="geometry"/>
                </mxCell>
                <mxCell id="35" value="Registers" style="text;html=1;strokeColor=none;fillColor=none;align=center;verticalAlign=middle;whiteSpace=wrap;rounded=0;" vertex="1" parent="36">
                    <mxGeometry width="60" height="30" as="geometry"/>
                </mxCell>
                <mxCell id="37" value="[...]" style="text;html=1;strokeColor=none;fillColor=none;align=center;verticalAlign=middle;whiteSpace=wrap;rounded=0;" vertex="1" parent="52">
                    <mxGeometry x="190" y="65" width="30" height="30" as="geometry"/>
                </mxCell>
                <mxCell id="47" value="" style="whiteSpace=wrap;html=1;aspect=fixed;" vertex="1" parent="52">
                    <mxGeometry x="230" y="60" width="40" height="40" as="geometry"/>
                </mxCell>
                <mxCell id="48" value="Machine Instructions" style="swimlane;fontStyle=0;childLayout=stackLayout;horizontal=1;startSize=26;fillColor=none;horizontalStack=0;resizeParent=1;resizeParentMax=0;resizeLast=0;collapsible=1;marginBottom=0;html=1;" vertex="1" parent="52">
                    <mxGeometry x="120" y="125" width="140" height="104" as="geometry"/>
                </mxCell>
                <mxCell id="49" value="Instruction 1" style="text;strokeColor=none;fillColor=none;align=left;verticalAlign=top;spacingLeft=4;spacingRight=4;overflow=hidden;rotatable=0;points=[[0,0.5],[1,0.5]];portConstraint=eastwest;whiteSpace=wrap;html=1;" vertex="1" parent="48">
                    <mxGeometry y="26" width="140" height="26" as="geometry"/>
                </mxCell>
                <mxCell id="50" value="Instruction 2" style="text;strokeColor=none;fillColor=none;align=left;verticalAlign=top;spacingLeft=4;spacingRight=4;overflow=hidden;rotatable=0;points=[[0,0.5],[1,0.5]];portConstraint=eastwest;whiteSpace=wrap;html=1;" vertex="1" parent="48">
                    <mxGeometry y="52" width="140" height="26" as="geometry"/>
                </mxCell>
                <mxCell id="51" value="Instruction 3" style="text;strokeColor=none;fillColor=none;align=left;verticalAlign=top;spacingLeft=4;spacingRight=4;overflow=hidden;rotatable=0;points=[[0,0.5],[1,0.5]];portConstraint=eastwest;whiteSpace=wrap;html=1;" vertex="1" parent="48">
                    <mxGeometry y="78" width="140" height="26" as="geometry"/>
                </mxCell>
                <mxCell id="53" value="" style="group" vertex="1" connectable="0" parent="1">
                    <mxGeometry x="60" y="370" width="290" height="330" as="geometry"/>
                </mxCell>
                <mxCell id="54" value="Champion" style="rounded=1;whiteSpace=wrap;html=1;verticalAlign=top;align=center;arcSize=15;" vertex="1" parent="53">
                    <mxGeometry width="290" height="330" as="geometry"/>
                </mxCell>
                <mxCell id="55" value="" style="group" vertex="1" connectable="0" parent="53">
                    <mxGeometry x="20" y="30" width="160" height="70" as="geometry"/>
                </mxCell>
                <mxCell id="56" value="" style="group" vertex="1" connectable="0" parent="55">
                    <mxGeometry y="30" width="160" height="40" as="geometry"/>
                </mxCell>
                <mxCell id="57" value="" style="whiteSpace=wrap;html=1;aspect=fixed;" vertex="1" parent="56">
                    <mxGeometry width="40" height="40" as="geometry"/>
                </mxCell>
                <mxCell id="58" value="" style="whiteSpace=wrap;html=1;aspect=fixed;" vertex="1" parent="56">
                    <mxGeometry x="40" width="40" height="40" as="geometry"/>
                </mxCell>
                <mxCell id="59" value="" style="whiteSpace=wrap;html=1;aspect=fixed;" vertex="1" parent="56">
                    <mxGeometry x="80" width="40" height="40" as="geometry"/>
                </mxCell>
                <mxCell id="60" value="" style="whiteSpace=wrap;html=1;aspect=fixed;" vertex="1" parent="56">
                    <mxGeometry x="120" width="40" height="40" as="geometry"/>
                </mxCell>
                <mxCell id="61" value="Registers" style="text;html=1;strokeColor=none;fillColor=none;align=center;verticalAlign=middle;whiteSpace=wrap;rounded=0;" vertex="1" parent="55">
                    <mxGeometry width="60" height="30" as="geometry"/>
                </mxCell>
                <mxCell id="62" value="[...]" style="text;html=1;strokeColor=none;fillColor=none;align=center;verticalAlign=middle;whiteSpace=wrap;rounded=0;" vertex="1" parent="53">
                    <mxGeometry x="190" y="65" width="30" height="30" as="geometry"/>
                </mxCell>
                <mxCell id="63" value="" style="whiteSpace=wrap;html=1;aspect=fixed;" vertex="1" parent="53">
                    <mxGeometry x="230" y="60" width="40" height="40" as="geometry"/>
                </mxCell>
                <mxCell id="64" value="Machine Instructions" style="swimlane;fontStyle=0;childLayout=stackLayout;horizontal=1;startSize=26;fillColor=none;horizontalStack=0;resizeParent=1;resizeParentMax=0;resizeLast=0;collapsible=1;marginBottom=0;html=1;" vertex="1" parent="53">
                    <mxGeometry x="120" y="125" width="140" height="104" as="geometry"/>
                </mxCell>
                <mxCell id="65" value="Instruction 1" style="text;strokeColor=none;fillColor=none;align=left;verticalAlign=top;spacingLeft=4;spacingRight=4;overflow=hidden;rotatable=0;points=[[0,0.5],[1,0.5]];portConstraint=eastwest;whiteSpace=wrap;html=1;" vertex="1" parent="64">
                    <mxGeometry y="26" width="140" height="26" as="geometry"/>
                </mxCell>
                <mxCell id="66" value="Instruction 2" style="text;strokeColor=none;fillColor=none;align=left;verticalAlign=top;spacingLeft=4;spacingRight=4;overflow=hidden;rotatable=0;points=[[0,0.5],[1,0.5]];portConstraint=eastwest;whiteSpace=wrap;html=1;" vertex="1" parent="64">
                    <mxGeometry y="52" width="140" height="26" as="geometry"/>
                </mxCell>
                <mxCell id="67" value="Instruction 3" style="text;strokeColor=none;fillColor=none;align=left;verticalAlign=top;spacingLeft=4;spacingRight=4;overflow=hidden;rotatable=0;points=[[0,0.5],[1,0.5]];portConstraint=eastwest;whiteSpace=wrap;html=1;" vertex="1" parent="64">
                    <mxGeometry y="78" width="140" height="26" as="geometry"/>
                </mxCell>
                <mxCell id="70" style="html=1;exitX=1;exitY=0.467;exitDx=0;exitDy=0;entryX=0;entryY=0.5;entryDx=0;entryDy=0;exitPerimeter=0;edgeStyle=orthogonalEdgeStyle;" edge="1" parent="53" source="68" target="65">
                    <mxGeometry relative="1" as="geometry"/>
                </mxCell>
                <mxCell id="68" value="AC&lt;br&gt;Counter" style="whiteSpace=wrap;html=1;aspect=fixed;" vertex="1" parent="53">
                    <mxGeometry x="20" y="137.5" width="55" height="55" as="geometry"/>
                </mxCell>
            </root>
        </mxGraphModel>
    </diagram>
</mxfile>